<?xml version="1.0" encoding="UTF-8"?>
<svg id="Layer_2" data-name="Layer 2" xmlns="http://www.w3.org/2000/svg" viewBox="0 0 738 362.22">
  <defs>
    <style>
      .cls-1 {
        fill: #3f3a3a;
      }

      .cls-2 {
        fill: #ff355e;
      }
    </style>
  </defs>
  <g id="Layer_5" data-name="Layer 5">
    <g>
      <path class="cls-2" d="M0,213.38c0-38.83,27.18-67.04,65.75-67.04,40.64,0,66.01,35.2,60.05,79.47H38.57c2.59,15.27,15.79,22.26,28.22,22.26,11.39,0,21.23-6.21,26.4-15.79l31.32,17.08c-11.39,19.41-33.13,30.8-57.72,30.8C27.96,280.17,0,252.21,0,213.38ZM90.34,195.01c-2.59-10.61-11.91-17.09-23.81-17.09s-23.04,6.21-25.63,17.09h49.44Z"/>
      <path class="cls-2" d="M146.25,280.17v-128.65h33.65v7.25c6.99-5.18,16.05-9.84,28.73-9.84,31.58,0,54.36,25.11,54.36,60.05v71.18h-34.69v-69.11c0-17.86-8.8-28.99-22.78-28.99s-24.59,11.91-24.59,27.7v70.41h-34.69Z"/>
      <path class="cls-2" d="M282.67,280.17l.26-181.2h34.43v95l38.31-42.45h44l-52.8,59.28,60.83,69.37h-44.78l-38.83-43.75-6.73,8.02v35.72h-34.69Z"/>
      <path class="cls-2" d="M443.79,241.01c-4.88-7.51-6.55-16.46-4.69-25.22,1.86-8.76,7.01-16.27,14.52-21.15,2.26-1.47,4.66-2.61,7.14-3.49v-39.63h-34.95v128.65h34.95v-18.61c-6.32-6.07-12.03-12.94-16.98-20.55Z"/>
      <path class="cls-2" d="M737.61,219.56c-.97-4.57-3.66-8.48-7.57-11.03-3.91-2.54-8.59-3.41-13.15-2.44-4.57.97-8.48,3.66-11.03,7.57-12.4,19.08-35,28.79-54.95,23.59-13.19-3.43-21.85-12.62-26.8-19.73l-.23-.34c22.88-10.89,38.74-34.23,38.74-61.21,0-37.36-30.39-67.75-67.75-67.75s-67.75,30.39-67.75,67.75c0,26.98,15.86,50.32,38.74,61.21l-.23.34c-4.95,7.1-13.61,16.29-26.8,19.73-19.94,5.19-42.54-4.5-54.95-23.59-2.54-3.91-6.46-6.6-11.03-7.57-4.56-.97-9.24-.1-13.15,2.44-3.91,2.54-6.6,6.46-7.57,11.03-.97,4.57-.1,9.24,2.44,13.15,16.66,25.64,43.93,40.94,72.94,40.94,6.79,0,13.56-.87,20.13-2.57,16.44-4.28,30.58-13.52,42.03-27.46l5.2-6.33,5.2,6.34c11.45,13.94,25.59,23.18,42.03,27.46,6.57,1.71,13.34,2.58,20.13,2.58,29.01,0,56.27-15.31,72.94-40.94,2.55-3.91,3.41-8.59,2.44-13.15ZM597.62,192.35c-1.67,1.33-4.04,1.34-5.72.03-7.22-5.62-25.53-22.11-25.53-44.92,0-15.69,12.72-28.41,28.41-28.41s28.41,12.72,28.41,28.41c0,22.37-18.37,39.17-25.56,44.89Z"/>
      <path class="cls-2" d="M491.26,0c-20,0-36.22,16.32-36.22,36.45s16.21,36.45,36.22,36.45,36.22-16.32,36.22-36.45S511.26,0,491.26,0Z"/>
      <g>
        <path class="cls-1" d="M320.2,307.2c-.37.64-.76,1.11-1.17,1.4-.41.29-.93.44-1.54.44-.64,0-1.34-.24-2.09-.71-.75-.47-1.64-1-2.68-1.58-1.04-.58-2.26-1.11-3.65-1.58-1.39-.47-3.04-.71-4.93-.71-1.71,0-3.21.21-4.5.62-1.28.41-2.36.99-3.24,1.72-.87.73-1.52,1.61-1.95,2.64-.43,1.03-.64,2.15-.64,3.37,0,1.56.44,2.86,1.31,3.9.87,1.04,2.03,1.93,3.46,2.66,1.44.73,3.07,1.39,4.91,1.97s3.72,1.2,5.64,1.86c1.93.66,3.81,1.42,5.64,2.29,1.84.87,3.47,1.97,4.91,3.3,1.44,1.33,2.59,2.96,3.47,4.89.87,1.93,1.31,4.27,1.31,7.02,0,3-.51,5.8-1.54,8.42-1.02,2.62-2.52,4.89-4.5,6.84-1.97,1.94-4.38,3.47-7.23,4.59-2.84,1.12-6.1,1.68-9.77,1.68-2.11,0-4.19-.21-6.24-.62-2.05-.41-4.02-1-5.9-1.77-1.88-.76-3.65-1.68-5.3-2.75-1.65-1.07-3.12-2.26-4.4-3.58l3.63-5.92c.3-.43.7-.79,1.19-1.08.49-.29,1.01-.44,1.56-.44.76,0,1.59.31,2.48.94.89.63,1.94,1.32,3.17,2.09,1.22.76,2.65,1.46,4.29,2.09,1.64.63,3.6.94,5.9.94,3.52,0,6.24-.83,8.17-2.5,1.93-1.67,2.89-4.06,2.89-7.18,0-1.74-.44-3.17-1.31-4.27-.87-1.1-2.03-2.03-3.47-2.78-1.44-.75-3.07-1.38-4.91-1.9-1.84-.52-3.7-1.09-5.6-1.7-1.9-.61-3.76-1.35-5.6-2.2-1.84-.86-3.47-1.97-4.91-3.35-1.44-1.38-2.59-3.1-3.46-5.16-.87-2.06-1.31-4.61-1.31-7.64,0-2.42.48-4.77,1.44-7.07.96-2.29,2.36-4.33,4.2-6.1s4.1-3.2,6.79-4.27c2.69-1.07,5.78-1.61,9.27-1.61,3.92,0,7.53.61,10.83,1.84,3.3,1.22,6.12,2.94,8.44,5.14l-3.08,5.83Z"/>
        <path class="cls-1" d="M405.42,305.28h-20.01v56.21h-12.34v-56.21h-20.01v-10.14h52.36v10.14Z"/>
        <path class="cls-1" d="M464.7,351.53c2.39,0,4.52-.4,6.4-1.19,1.88-.79,3.47-1.91,4.75-3.35,1.28-1.44,2.27-3.18,2.96-5.23.69-2.05,1.03-4.34,1.03-6.88v-39.74h12.34v39.74c0,3.95-.63,7.6-1.9,10.94-1.27,3.35-3.09,6.24-5.46,8.67-2.37,2.43-5.25,4.33-8.65,5.69-3.4,1.36-7.22,2.04-11.47,2.04s-8.12-.68-11.52-2.04c-3.4-1.36-6.28-3.26-8.65-5.69-2.37-2.43-4.19-5.32-5.46-8.67-1.27-3.35-1.9-7-1.9-10.94v-39.74h12.34v39.69c0,2.54.34,4.83,1.03,6.88.69,2.05,1.68,3.8,2.98,5.25,1.3,1.45,2.89,2.58,4.77,3.37,1.88.8,4.02,1.19,6.4,1.19Z"/>
        <path class="cls-1" d="M588.91,328.31c0,4.86-.81,9.33-2.43,13.4-1.62,4.07-3.9,7.57-6.84,10.51-2.94,2.94-6.47,5.22-10.6,6.84-4.13,1.62-8.72,2.43-13.77,2.43h-25.28v-66.35h25.28c5.05,0,9.64.82,13.77,2.45,4.13,1.64,7.66,3.92,10.6,6.84,2.94,2.92,5.21,6.42,6.84,10.48,1.62,4.07,2.43,8.54,2.43,13.4ZM576.25,328.31c0-3.64-.48-6.91-1.45-9.8-.96-2.89-2.36-5.34-4.18-7.34-1.82-2-4.02-3.54-6.61-4.61-2.59-1.07-5.5-1.61-8.74-1.61h-12.9v46.71h12.9c3.24,0,6.16-.53,8.74-1.61,2.58-1.07,4.79-2.61,6.61-4.61,1.82-2,3.21-4.45,4.18-7.34.96-2.89,1.45-6.16,1.45-9.8Z"/>
        <path class="cls-1" d="M636.04,361.49h-12.39v-66.35h12.39v66.35Z"/>
        <path class="cls-1" d="M738,328.31c0,4.86-.8,9.37-2.41,13.51-1.61,4.15-3.88,7.73-6.81,10.76-2.94,3.03-6.47,5.39-10.6,7.09-4.13,1.7-8.72,2.55-13.77,2.55s-9.59-.85-13.72-2.55c-4.13-1.7-7.67-4.06-10.62-7.09-2.95-3.03-5.24-6.61-6.86-10.76-1.62-4.14-2.43-8.65-2.43-13.51s.81-9.37,2.43-13.51c1.62-4.14,3.91-7.73,6.86-10.76,2.95-3.03,6.49-5.39,10.62-7.09,4.13-1.7,8.7-2.55,13.72-2.55,3.36,0,6.53.39,9.5,1.17,2.97.78,5.69,1.88,8.17,3.3,2.48,1.42,4.7,3.15,6.68,5.18,1.97,2.03,3.65,4.31,5.02,6.81,1.38,2.51,2.42,5.23,3.14,8.17.72,2.94,1.08,6.03,1.08,9.27ZM725.38,328.31c0-3.64-.49-6.91-1.47-9.8-.98-2.89-2.37-5.35-4.18-7.37s-4-3.56-6.58-4.63c-2.59-1.07-5.5-1.61-8.74-1.61s-6.16.54-8.74,1.61c-2.59,1.07-4.79,2.62-6.61,4.63-1.82,2.02-3.22,4.47-4.2,7.37-.98,2.89-1.47,6.16-1.47,9.8s.49,6.91,1.47,9.8c.98,2.89,2.38,5.34,4.2,7.34,1.82,2,4.02,3.54,6.61,4.61,2.58,1.07,5.5,1.61,8.74,1.61s6.16-.53,8.74-1.61c2.58-1.07,4.78-2.61,6.58-4.61,1.8-2,3.2-4.45,4.18-7.34.98-2.89,1.47-6.16,1.47-9.8Z"/>
      </g>
    </g>
  </g>
</svg>